<svg xmlns="http://www.w3.org/2000/svg" width="49" height="45" viewBox="0 0 49 45">
    <g fill="#00A2FF" fill-rule="nonzero">
        <path d="M48.861 19.12a1.034 1.034 0 0 0-.933-.569H44.88C42.941 8.452 33.703.775 22.631.775 10.153.775 0 10.522 0 22.501s10.152 21.725 22.631 21.725c8.053 0 15.564-4.161 19.6-10.857.569-.945.234-2.152-.752-2.699-.983-.547-2.242-.225-2.81.72-3.303 5.481-9.45 8.887-16.038 8.887-10.21 0-18.516-7.974-18.516-17.774 0-9.802 8.307-17.776 18.516-17.776 8.794 0 16.162 5.921 18.039 13.825h-3.025c-.401 0-.763.222-.934.569a.954.954 0 0 0 .142 1.051l5.144 5.925c.196.225.484.355.79.355.306 0 .595-.131.79-.355l5.144-5.925a.956.956 0 0 0 .14-1.052z"/>
        <path d="M22.631 5.713c-1.136 0-2.057.884-2.057 1.975v11.984c-.93.626-1.543 1.658-1.543 2.83 0 1.906 1.616 3.457 3.601 3.457.544 0 1.057-.125 1.519-.334l7.156 3.965c.325.181.677.266 1.027.266.71 0 1.402-.354 1.784-.988.567-.943.231-2.152-.754-2.697L26.2 22.2a3.414 3.414 0 0 0-1.51-2.526V7.688c-.001-1.09-.923-1.975-2.059-1.975zm0 18.269c-.85 0-1.542-.665-1.542-1.48 0-.816.692-1.481 1.542-1.481.85 0 1.543.665 1.543 1.481 0 .815-.693 1.48-1.543 1.48z"/>
    </g>
</svg>
