<svg xmlns="http://www.w3.org/2000/svg" width="46" height="47" viewBox="0 0 46 47">
    <path fill="#00A2FF" fill-rule="nonzero" d="M40.638 0l3.068 26.096-3.444.406-2.74-23.306H8.478l-2.74 23.306-3.445-.405L5.362 0h35.276zm-29.32 5.844h23.365v2.922H11.317V5.844zm0 5.845h23.365v2.922H11.317v-2.922zm0 5.844h23.365v2.922H11.317v-2.922zm0 5.844h23.365v2.922H11.317v-2.922zm33.587 5.844H1.095c-.803 0-1.252.624-.998 1.386l4.917 14.761c.254.762 1.12 1.386 1.923 1.386h32.126c.804 0 1.668-.624 1.923-1.386l4.917-14.76c.254-.763-.195-1.387-.998-1.387zM28.84 35.066H17.16v-2.923H28.84v2.923z"/>
</svg>
